<svg width="17" height="16" viewBox="0 0 17 16" fill="none" xmlns="http://www.w3.org/2000/svg">
<path d="M0.532318 3.04126V14.4547C0.532318 14.6876 0.624817 14.9109 0.789466 15.0755C0.954115 15.2402 1.17743 15.3327 1.41028 15.3327H15.4576C15.6905 15.3327 15.9138 15.2402 16.0784 15.0755C16.2431 14.9109 16.3356 14.6876 16.3356 14.4547V4.79717H2.28823M0.532318 3.04126C0.532318 3.50695 0.717316 3.95358 1.04661 4.28288C1.37591 4.61217 1.82254 4.79717 2.28823 4.79717M0.532318 3.04126C0.532318 2.57556 0.717316 2.12893 1.04661 1.79964C1.37591 1.47034 1.82254 1.28534 2.28823 1.28534H14.5796V4.79717H2.28823M16.3356 11.8208H11.9458C11.7129 11.8208 11.4896 11.7283 11.325 11.5637C11.1603 11.399 11.0678 11.1757 11.0678 10.9429V9.18696C11.0678 8.95411 11.1603 8.7308 11.325 8.56615C11.4896 8.4015 11.7129 8.309 11.9458 8.309H16.3356V11.8208Z" stroke="#4F3E0A" stroke-linecap="round" stroke-linejoin="round"/>
</svg>
